Coordinates
nRows=135
nColumns=2
inDegrees=yes
endheader
time	ankle_angle_r	
2.6875	 18.462921	
2.75	 18.515598	
2.8125	 18.490205	
2.875	 18.451347	
2.9375	 18.441164	
3	 18.467179	
3.0625	 18.494517	
3.125	 18.466729	
3.1875	 18.461353	
3.25	 18.479045	
3.3125	 18.440341	
3.375	 18.435461	
3.4375	 18.463911	
3.5	 18.445478	
3.5625	 18.466612	
3.625	 18.521774	
3.6875	 18.503053	
3.75	 18.452310	
3.8125	 18.427045	
3.875	 18.434076	
3.9375	 18.486649	
4	 18.518309	
4.0625	 18.493324	
4.125	 18.471816	
4.1875	 18.485244	
4.25	 18.520350	
4.3125	 18.543417	
4.375	 18.532035	
4.4375	 18.492543	
4.5	 18.490225	
4.5625	 18.540921	
4.625	 18.548563	
4.6875	 18.518666	
4.75	 18.512588	
4.8125	 18.517595	
4.875	 18.513985	
4.9375	 18.498814	
5	 18.511284	
5.0625	 18.563644	
5.125	 18.593963	
5.1875	 18.572691	
5.25	 18.534598	
5.3125	 18.524000	
5.375	 18.521081	
5.4375	 18.493571	
5.5	 18.497511	
5.5625	 18.528522	
5.625	 18.510415	
5.6875	 18.473602	
5.75	 18.467782	
5.8125	 18.495262	
5.875	 18.528680	
5.9375	 18.514573	
6	 18.506065	
6.0625	 18.552602	
6.125	 18.572850	
6.1875	 18.553258	
6.25	 18.517058	
6.3125	 18.468451	
6.375	 18.456594	
6.4375	 18.455711	
6.5	 18.439544	
6.5625	 18.439695	
6.625	 18.459174	
6.6875	 18.505286	
6.75	 18.522924	
6.8125	 18.462784	
6.875	 18.401442	
6.9375	 18.391365	
7	 18.434160	
7.0625	 18.501750	
7.125	 18.507917	
7.1875	 18.463051	
7.25	 18.437379	
7.3125	 18.428590	
7.375	 18.445136	
7.4375	 18.480314	
7.5	 18.500876	
7.5625	 18.505157	
7.625	 18.490393	
7.6875	 18.470847	
7.75	 18.452556	
7.8125	 18.422688	
7.875	 18.411974	
7.9375	 18.432667	
8	 18.442352	
8.0625	 18.429572	
8.125	 18.431627	
8.1875	 18.457476	
8.25	 18.437824	
8.3125	 18.369306	
8.375	 18.356919	
8.4375	 18.378499	
8.5	 18.390617	
8.5625	 18.446547	
8.625	 18.471714	
8.6875	 18.427115	
8.75	 18.414431	
8.8125	 18.436457	
8.875	 18.443468	
8.9375	 18.431337	
9	 18.429145	
9.0625	 18.437201	
9.125	 18.411666	
9.1875	 18.382862	
9.25	 18.379499	
9.3125	 18.369702	
9.375	 18.362488	
9.4375	 18.357756	
9.5	 18.360204	
9.5625	 18.395521	
9.625	 18.418603	
9.6875	 18.420888	
9.75	 18.446261	
9.8125	 18.465649	
9.875	 18.466312	
9.9375	 18.507638	
10	 18.564401	
10.0625	 18.540229	
10.125	 18.476400	
10.1875	 18.466902	
10.25	 18.479531	
10.3125	 18.463705	
10.375	 18.445622	
10.4375	 18.431659	
10.5	 18.419873	
10.5625	 18.459746	
10.625	 18.512226	
10.6875	 18.516645	
10.75	 18.499065	
10.8125	 18.478066	
10.875	 18.485527	
10.9375	 18.490688	
11	 18.447785	
11.0625	 18.417355	
